<svg width="12" height="12" viewBox="0 0 12 12" fill="none" xmlns="http://www.w3.org/2000/svg">
<path d="M8.76697 5.68641L6.42884 4.82438L5.56494 2.48438C5.49888 2.30521 5.37947 2.1506 5.22282 2.0414C5.06617 1.9322 4.8798 1.87366 4.68884 1.87366C4.49789 1.87366 4.31152 1.9322 4.15487 2.0414C3.99822 2.1506 3.87881 2.30521 3.81275 2.48438L2.95072 4.82438L0.610719 5.68641C0.431553 5.75247 0.276949 5.87187 0.167748 6.02852C0.0585468 6.18518 0 6.37154 0 6.5625C0 6.75346 0.0585468 6.93982 0.167748 7.09648C0.276949 7.25313 0.431553 7.37253 0.610719 7.43859L2.94884 8.30062L3.81275 10.6406C3.87881 10.8198 3.99822 10.9744 4.15487 11.0836C4.31152 11.1928 4.49789 11.2513 4.68884 11.2513C4.8798 11.2513 5.06617 11.1928 5.22282 11.0836C5.37947 10.9744 5.49888 10.8198 5.56494 10.6406L6.42697 8.3025L8.76697 7.43859C8.94614 7.37253 9.10074 7.25313 9.20994 7.09648C9.31914 6.93982 9.37769 6.75346 9.37769 6.5625C9.37769 6.37154 9.31914 6.18518 9.20994 6.02852C9.10074 5.87187 8.94614 5.75247 8.76697 5.68641ZM5.79603 7.33453C5.71968 7.36267 5.65034 7.40704 5.5928 7.46458C5.53526 7.52212 5.49089 7.59146 5.46275 7.66781L4.68884 9.76312L3.91681 7.66781C3.88867 7.59146 3.8443 7.52212 3.78676 7.46458C3.72922 7.40704 3.65988 7.36267 3.58353 7.33453L1.48822 6.5625L3.58353 5.79047C3.65988 5.76233 3.72922 5.71796 3.78676 5.66042C3.8443 5.60288 3.88867 5.53354 3.91681 5.45719L4.68884 3.36188L5.46088 5.45719C5.48902 5.53354 5.53339 5.60288 5.59092 5.66042C5.64846 5.71796 5.7178 5.76233 5.79416 5.79047L7.88947 6.5625L5.79603 7.33453ZM6.00134 1.6875C6.00134 1.53832 6.06061 1.39524 6.1661 1.28975C6.27159 1.18426 6.41466 1.125 6.56384 1.125H7.12634V0.5625C7.12634 0.413316 7.18561 0.270242 7.2911 0.164752C7.39659 0.0592632 7.53966 0 7.68884 0C7.83803 0 7.9811 0.0592632 8.08659 0.164752C8.19208 0.270242 8.25134 0.413316 8.25134 0.5625V1.125H8.81384C8.96303 1.125 9.1061 1.18426 9.21159 1.28975C9.31708 1.39524 9.37634 1.53832 9.37634 1.6875C9.37634 1.83668 9.31708 1.97976 9.21159 2.08525C9.1061 2.19074 8.96303 2.25 8.81384 2.25H8.25134V2.8125C8.25134 2.96168 8.19208 3.10476 8.08659 3.21025C7.9811 3.31574 7.83803 3.375 7.68884 3.375C7.53966 3.375 7.39659 3.31574 7.2911 3.21025C7.18561 3.10476 7.12634 2.96168 7.12634 2.8125V2.25H6.56384C6.41466 2.25 6.27159 2.19074 6.1661 2.08525C6.06061 1.97976 6.00134 1.83668 6.00134 1.6875ZM11.2513 3.9375C11.2513 4.08668 11.1921 4.22976 11.0866 4.33525C10.9811 4.44074 10.838 4.5 10.6888 4.5H10.5013V4.6875C10.5013 4.83668 10.4421 4.97976 10.3366 5.08525C10.2311 5.19074 10.088 5.25 9.93884 5.25C9.78966 5.25 9.64659 5.19074 9.5411 5.08525C9.43561 4.97976 9.37634 4.83668 9.37634 4.6875V4.5H9.18884C9.03966 4.5 8.89659 4.44074 8.7911 4.33525C8.68561 4.22976 8.62634 4.08668 8.62634 3.9375C8.62634 3.78832 8.68561 3.64524 8.7911 3.53975C8.89659 3.43426 9.03966 3.375 9.18884 3.375H9.37634V3.1875C9.37634 3.03832 9.43561 2.89524 9.5411 2.78975C9.64659 2.68426 9.78966 2.625 9.93884 2.625C10.088 2.625 10.2311 2.68426 10.3366 2.78975C10.4421 2.89524 10.5013 3.03832 10.5013 3.1875V3.375H10.6888C10.838 3.375 10.9811 3.43426 11.0866 3.53975C11.1921 3.64524 11.2513 3.78832 11.2513 3.9375Z" fill="#00A96E"/>
</svg>
